<svg xmlns="http://www.w3.org/2000/svg" viewBox="0 0 200 200">
  <defs>
    <linearGradient id="grad1" x1="0%" y1="0%" x2="100%" y2="100%">
      <stop offset="0%" style="stop-color:darkblue;stop-opacity:1" />
      <stop offset="100%" style="stop-color:green;stop-opacity:1" />
    </linearGradient>
  </defs>
  <rect width="200" height="200" fill="url(#grad1)" />
  <path d="M50 20 L70 70 L50 60 L80 100 L50 90 L70 150" fill="none" stroke="yellow" stroke-width="6" />
  <circle cx="150" cy="150" r="30" fill="lightblue" stroke="yellow" stroke-width="4" />
  <path d="M150,120 A30,30 0 0 1 180,150 A30,30 0 0 1 150,180 A30,30 0 0 1 120,150 A30,30 0 0 1 150,120" fill="none" stroke="blue" stroke-width="2" />
  <path d="M120 150 L130 140 L140 150 L130 160 Z" fill="yellow" />
  <circle cx="170" cy="130" r="5" fill="yellow" />
  <circle cx="160" cy="150" r="5" fill="yellow" />
  <circle cx="180" cy="150" r="5" fill="yellow" />
  <circle cx="170" cy="170" r="5" fill="yellow" />
</svg>